<svg xmlns="http://www.w3.org/2000/svg" xmlns:xlink="http://www.w3.org/1999/xlink" width="408" height="612" viewBox="0 0 408 612"><defs><path id="sn0za" d="M1364.64 4939.3c-.45-.1-.92-.11-1.38-.11h-.47c-.02-.4-.04-.8-.08-1.2-.06-.66-.18-1.78-.96-1.99-.12-.03-.43 1.23-.46 1.36-.08.45-.1.92-.1 1.38v.47c-.38.02-.76.04-1.14.1-.65.09-1.84.14-2.05.94-.03.11 1.23.43 1.35.45.6.12 1.24.11 1.86.11.02.38.04.76.1 1.14.09.65.14 1.84.93 2.05.12.03.44-1.23.46-1.35.12-.6.11-1.24.1-1.86.41-.02.81-.04 1.21-.08.66-.06 1.78-.18 1.99-.96.03-.11-1.23-.43-1.36-.46"/><path id="sn0zb" d="M1048.64 4760.3c-.45-.1-.92-.11-1.38-.11h-.47c-.02-.4-.04-.8-.08-1.2-.06-.66-.18-1.78-.96-1.99-.12-.03-.43 1.23-.46 1.36-.08.45-.1.92-.1 1.38v.47c-.38.02-.76.04-1.14.1-.65.09-1.84.14-2.05.94-.03.11 1.23.43 1.35.45.6.12 1.24.11 1.86.11.02.38.04.76.1 1.14.09.65.14 1.84.93 2.05.12.03.44-1.23.46-1.35.12-.6.11-1.24.1-1.86.41-.02.81-.04 1.21-.08.66-.06 1.78-.18 1.99-.96.03-.11-1.23-.43-1.36-.46"/><path id="sn0zc" d="M1095.64 4948.3c-.45-.1-.92-.11-1.38-.11h-.47c-.02-.4-.04-.8-.08-1.2-.06-.66-.18-1.78-.96-1.99-.12-.03-.43 1.23-.46 1.36-.08.45-.1.92-.1 1.38v.47c-.38.02-.76.04-1.14.1-.65.09-1.84.14-2.05.94-.03.11 1.23.43 1.35.45.6.12 1.24.11 1.86.11.02.38.04.76.1 1.14.09.65.14 1.84.93 2.05.12.03.44-1.23.46-1.35.12-.6.11-1.24.1-1.86.41-.02.81-.04 1.21-.08.66-.06 1.78-.18 1.99-.96.03-.11-1.23-.43-1.36-.46"/><path id="sn0zd" d="M1281.64 4721.3c-.45-.1-.92-.11-1.38-.11h-.47c-.02-.4-.04-.8-.08-1.2-.06-.66-.18-1.78-.96-1.99-.12-.03-.43 1.23-.46 1.36-.08.45-.1.92-.1 1.38v.47c-.38.02-.76.04-1.14.1-.65.09-1.84.14-2.05.94-.03.11 1.23.43 1.35.45.6.12 1.24.11 1.86.11.02.38.04.76.1 1.14.09.65.14 1.84.93 2.05.12.03.44-1.23.46-1.35.12-.6.11-1.24.1-1.86.41-.02.81-.04 1.21-.08.66-.06 1.78-.18 1.99-.96.03-.11-1.23-.43-1.36-.46"/><path id="sn0ze" d="M1022.87 4873.05c-1.53.52-.88 3.08.67 2.95.32-.03.63-.18.87-.4l.17-.1c1.24-.98-.56-2.84-1.71-2.45"/><path id="sn0zf" d="M1150.87 4992.05c-1.53.52-.88 3.08.67 2.95.32-.03.63-.18.87-.4l.17-.1c1.24-.98-.56-2.84-1.71-2.45"/><path id="sn0zg" d="M1198.87 4831.05c-1.53.52-.88 3.08.67 2.95.32-.03.63-.18.87-.4l.17-.1c1.24-.98-.56-2.84-1.71-2.45"/><path id="sn0zh" d="M1404.87 4735.05c-1.53.52-.88 3.08.67 2.95.32-.03.63-.18.87-.4l.17-.1c1.24-.98-.56-2.84-1.71-2.45"/><path id="sn0zi" d="M1414.87 4612.05c-1.53.52-.88 3.08.67 2.95.32-.03.63-.18.87-.4l.17-.1c1.24-.98-.56-2.84-1.71-2.45"/><path id="sn0zj" d="M1356.64 4821.3c-.45-.1-.92-.11-1.38-.11h-.47c-.02-.4-.04-.8-.08-1.2-.06-.66-.18-1.78-.96-1.99-.12-.03-.43 1.23-.46 1.36-.08.45-.1.92-.1 1.38v.47c-.38.02-.76.04-1.14.1-.65.09-1.84.14-2.05.94-.03.11 1.23.43 1.35.45.6.12 1.24.11 1.86.11.02.38.04.76.1 1.14.09.65.14 1.84.93 2.05.12.03.44-1.23.46-1.35.12-.6.11-1.24.1-1.86.41-.02.81-.04 1.21-.08.66-.06 1.78-.18 1.99-.96.03-.11-1.23-.43-1.36-.46"/><path id="sn0zk" d="M1388.87 4998.05c-1.53.52-.88 3.08.67 2.95.32-.03.63-.18.87-.4l.17-.1c1.24-.98-.56-2.84-1.71-2.45"/><path id="sn0zl" d="M1236.87 4907.05c-1.53.52-.88 3.08.67 2.95.32-.03.63-.18.87-.4l.17-.1c1.24-.98-.56-2.84-1.71-2.45"/><path id="sn0zm" d="M1294.87 4878.05c-1.53.52-.88 3.08.67 2.95.32-.03.63-.18.87-.4l.17-.1c1.24-.98-.56-2.84-1.71-2.45"/><path id="sn0zn" d="M1313.87 4899.05c-1.53.52-.88 3.08.67 2.95.32-.03.63-.18.87-.4l.17-.1c1.24-.98-.56-2.84-1.71-2.45"/><path id="sn0zo" d="M1385.87 4880.05c-1.53.52-.88 3.08.67 2.95.32-.03.63-.18.87-.4l.17-.1c1.24-.98-.56-2.84-1.71-2.45"/><path id="sn0zp" d="M1354.36 4822l-58.36 27.55 18.85 50.89 47.29 38.56s22.32-58.5 24.9-58.5c2.57 0 34.96-5.53 34.96-5.53z"/><path id="sn0zq" d="M1390 5000l-28-60"/><path id="sn0zr" d="M1140.64 4882.3c-.45-.1-.92-.11-1.38-.11h-.47c-.02-.4-.04-.8-.08-1.2-.06-.66-.18-1.78-.96-1.99-.12-.03-.43 1.23-.46 1.36-.08.45-.1.92-.1 1.38v.47c-.38.02-.76.04-1.14.1-.65.09-1.84.14-2.05.94-.03.11 1.23.43 1.35.45.6.12 1.24.11 1.86.11.02.38.04.76.1 1.14.09.65.14 1.84.93 2.05.12.03.44-1.23.46-1.35.12-.6.11-1.24.1-1.86.41-.02.81-.04 1.21-.08.66-.06 1.78-.18 1.99-.96.03-.11-1.23-.43-1.36-.46"/><path id="sn0zs" d="M1276.83 4834.38c-1.14.37-.65 2.22.5 2.13.24-.02.46-.12.64-.29a.76.76 0 0 0 .13-.07c.94-.71-.4-2.05-1.27-1.77z"/><path id="sn0zt" d="M1085.5 5206.84c3.59-1.88 16.5-3.11 31.46-3.42 14.95-.31 73.52-5.3 84.42-3.74 10.9 1.56 26.8-.3 35.52-.3 8.72 0 20.87 3.73 31.77 3.42 10.9-.31 29.9-7.17 37.7-5.3 7.78 1.88 6.54 7.8 18.69 6.54 12.15-1.24 35.2-4.36 47.06-1.55 11.85 2.8 14.32 7.16 8.72 9.96-5.6 2.8-20.87 4.68-30.22 4.06-9.34-.63-24.3-4.06-33.64-4.68-9.34-.62-27.45 7.17-35.54 6.54-8.08-.63-19-4.36-25.23-4.36s-8.41 1.52-10.75 4.5c-2.33 2.97-10.44 10.14-42.52-.47-32.09-10.62-21.8-.32-29.9-.32-8.1 0-11.85-.62-23.07-3.11-11.21-2.5-30.52-.94-42.98-.94-12.47 0-27.41-3.71-21.5-6.83z"/><path id="sn0zu" d="M1224.22 4963.47c-2.65.23-9.16 3.58-10.35 8.24-1.2 4.66-2.5 9.41-4.09 12.12a92 92 0 0 1-10.3 14.04c-5.55 6.4-4.34 12.8-1.73 14.48 2.61 1.68 4.55 3.32 7.76 1.07 3.22-2.25 11.22-9.26 14.76-14.46 3.54-5.2 7.8-9.84 9.32-12.88 1.53-3.03 6.4-10.77 3-17.43-2.72-5.28-8.37-5.18-8.37-5.18z"/><path id="sn0zv" d="M1186.6 4990.72c4.84 2.84 9.48 6 13.9 9.46.94.82 3.97 13.44 3.97 13.44s-2.9 3.19-5.07 3.06c-2.18-.13-17.84-7.85-23.89-13.78-6.05-5.94-13.84-14.58-16.33-17.1-2.5-2.5-2.47-12.12 4.01-8.22l1.54.91c7.06 4.14 20.18 11.28 21.87 12.23z"/><path id="sn0zw" d="M1158 4961.93s-.98 2.76.4 4.75c1.4 2 .84 3.94.37 4.15-.46.2-5.56-.1-8.86-2.9-3.3-2.79-4.18-4.45-4.18-4.45s-1.41-.61-2.05 1.56c-.64 2.18-.1 2.9-.1 2.9s-1.4 1.05-.97 3.83c-.58.88-.23 2.66.47 3.92.7 1.26-.32 1.66-.23 2.82.08 1.17 3.47 3.65 6.82 4.46 3.34.8 6.48 1.14 8.74 2.27 2.27 1.12 4.71.5 4.6-1.33-.12-1.84 1.75-5.4 1.75-5.4s-.56-.95-.94-4.63c-.38-3.67.37-5.09-.76-6.38-2.1-2.36-3.89-7.72-5.06-5.57z"/><path id="sn0zx" d="M1202.43 5205.27l-.6.2a2.3 2.3 0 0 1-2.89-1.53l-55.27-179.73a2.35 2.35 0 0 1 1.52-2.93l.6-.19a2.3 2.3 0 0 1 2.89 1.54l55.26 179.71a2.35 2.35 0 0 1-1.51 2.93z"/><path id="sn0zy" d="M1170.89 5212.25l-.62.1a2.32 2.32 0 0 1-2.67-1.87l-31.65-185.52a2.35 2.35 0 0 1 1.89-2.7l.62-.1a2.32 2.32 0 0 1 2.66 1.87l31.65 185.5a2.35 2.35 0 0 1-1.88 2.72z"/><path id="sn0zz" d="M1101.16 5212.78l-.63-.09a2.35 2.35 0 0 1-1.98-2.62l24.32-186.62a2.32 2.32 0 0 1 2.6-2.01l.62.08a2.35 2.35 0 0 1 1.98 2.62l-24.33 186.63a2.32 2.32 0 0 1-2.58 2.01z"/><path id="sn0zA" d="M1135.42 4997.57c-9.13 0-16.53 1.07-16.53 2.38l3.49 22.86c0 1.32 6.05 2.38 13.5 2.38 7.47 0 13.52-1.06 13.52-2.38l2.55-22.86c0-1.32-7.4-2.38-16.53-2.38z"/><path id="sn0zB" d="M1164.35 4921.23c-.27-1-4.79-3.1-12.23-2.94-7.45.16-10.48 1.88-10.48 1.88s-.95 35.98.65 37.7c1.37 1.48 2.65 4.45 2.98 5.23v32a3.55 3.55 0 0 0 3.52 3.57l5.04 1.16c.94 0 4.47-1.41 5.3-1.88 1.27-.71 2.29-1.36 2.29-2.87v-29.1h.04s0-5.15.65-6.1c.66-.94 1.47-1.05 1.75-2.32.27-1.27.75-35.33.5-36.33z"/><path id="sn0zC" d="M1162.4 4920.22c-.28-1-4.8-3.1-12.24-2.94-7.45.16-10.48 1.88-10.48 1.88s-.95 35.98.65 37.7c1.37 1.48 2.65 4.45 2.98 5.23v32a3.55 3.55 0 0 0 3.52 3.57h9.1a3.55 3.55 0 0 0 3.53-3.57v-29.13h.04s0-5.14.65-6.09c.66-.94 1.47-1.05 1.75-2.32.27-1.27.76-35.33.5-36.33z"/><path id="sn0zD" d="M1154.38 4921.39v-.05l-65.7-32c.93-4.5 1.4-6.77.14-7.78l-39.83-18.7-2.62-1.23-10.59-4.98a1.75 1.75 0 0 0-.27-.05h-.77l-.18.04c-.12.02-.24.06-.37.1l-.12.03-.26.1-.1.03c-4.05 1.54-11.21 8.07-15.54 17.61-5.25 11.55-4.41 23.26-1.88 25.04l.21.13 52.85 24.8c1.1.22 2.65-.73 4.41-2.57l65 30.88a4.44 4.44 0 0 0 .8.38l.11.05c4.71 1.64 11.47-3.62 15.4-12.12 3.92-8.5 3.56-17.1-.7-19.71z"/><path id="sn0zE" d="M1073.9 4896.02a46.37 46.37 0 0 0-5.02 13.38c-.99 4.96-2.72 14.49.44 15.14 1.04.12 2.66-.94 4.26-2.57-.55-2.42-.04-5 .31-7.41.77-4.6 2.15-9.08 4.1-13.31 2.46-5.5 5.45-9.41 10.56-11.88.94-2.72 1.45-5.48.83-6.8-2.9-3.77-12.02 7.4-15.47 13.45z"/><path id="sn0zF" d="M1155.15 4922.11c-.57-.23-1.14-.47-1.72-.65-.14-.05-.28-.11-.4-.18-3.04-.29-6.09.49-8.62 2.19-3 2.09-4.65 5.59-6.22 8.9a44.6 44.6 0 0 0-2.82 11.24c-.17 1.22.2 6 1.55 7.65.37.47.74.87 1.07 1.3l.61.28a4.44 4.44 0 0 0 .8.38l.11.05c4.7 1.64 11.47-3.62 15.4-12.12 3.6-7.85 3.6-15.8.24-19.04z"/><path id="sn0zG" d="M1127.33 4913.22c-.3-1.1-5.26-3.41-13.42-3.23-3.67.08-5.94.43-7.33.79a2.82 2.82 0 0 0-2.1 2.7c-.15 7.86-.65 38.74.87 40.38 1.51 1.65 2.9 4.9 3.27 5.75l.04 35.93a3.9 3.9 0 0 0 3.87 3.93l7.94 2.82a3.9 3.9 0 0 0 3.87-3.92l-.22-36h.04s0-5.65.72-6.7c.72-1.03 1.62-1.15 1.92-2.55.3-1.4.82-38.8.53-39.9z"/><path id="sn0zH" d="M1163.89 4916.8c1.24-2.69.8-5.58-.94-6.58l-37.44-17.8c-1.89-.76-4.39.76-5.65 3.47-1.27 2.72-.81 5.65.97 6.62l.15.07 36.88 17.52.16.09.17.07h.04c1.93.74 4.4-.76 5.66-3.46z"/><path id="sn0zI" d="M1162.9 4910.19l-.47-.22c-2.82-.47-6.31 4.57-5.9 7.68.26 1.96 1.06 2.26 1.16 2.4l.16.08.16.08.17.07h.04c1.9.72 4.38-.79 5.62-3.48 1.24-2.7.83-5.57-.93-6.61z"/><path id="sn0zJ" d="M1180.5 4925.13c.63-1.36.41-2.82-.47-3.35l-17.15-8.13c-.94-.38-2.22.38-2.86 1.76-.63 1.37-.4 2.85.47 3.35l.08.04 16.88 8 .08.04.09.04c1 .38 2.27-.39 2.88-1.75z"/><path id="sn0zK" d="M1124.75 4914.06c-.3-1.1-5.26-3.41-13.42-3.23-3.67.08-5.94.43-7.33.79a2.82 2.82 0 0 0-2.1 2.7c-.15 7.86-.65 38.74.87 40.38 1.51 1.65 2.9 4.9 3.27 5.75l.04 37.96c0 2.16 1.89 4.75 4 4.75l7.77.04c2.14 0 3.59-.98 3.59-3.15l.1-36.86h.05s0-5.65.72-6.69 1.62-1.15 1.92-2.55c.3-1.4.81-38.79.52-39.9z"/><path id="sn0zL" d="M1180.32 4922.03c-.18-.18-1.06.16-1.45.44-.43.36-.75.83-.95 1.36a6.79 6.79 0 0 0-.43 1.72c-.08.37-.06.75.07 1.1.19.26.3.3.3.3.9.23 2.03-.5 2.67-1.78.65-1.29.3-2.64-.2-3.14z"/><path id="sn0zM" d="M1310.93 5006.44c-2.24-.15-14.96-.9-25.05.5-10.1 1.4-22.82 4.7-22.82 4.7l-1.1.1c.38 1.5 6.69 2.06 8.77 2.2.43.04.85.04 1.28 0 5.1-.51 40.34-4.17 41.17-6.67 0-.04-.01-.68-2.25-.83z"/><path id="sn0zN" d="M1286.67 4935.36l2.71 1.39s1.79 2.65 4.03 3.1c2.25.46-4.5 20.67-4.5 20.67s-20.65 7.18-21.1 6.74c-.46-.44-3.15-15.27-3.15-15.73 0-.45 4.5-10.78 4.5-10.78z"/><path id="sn0zO" d="M1244.89 4940.75s-2.7 12.59 0 13.48c2.7.9 7.64-18.87 7.64-18.87z"/><path id="sn0zP" d="M1184.12 4862.97s-4.06.76-5.18 1.14c-1.12.38-2.21.77-2.21 2.67s.4 4.57.2 5.32c-.2.76.17 2.66.9 2.29.74-.38 0 1.52.74 1.88.74.36 1.85-.38 2.22-1.14.36-.77 1.47-4.95 2.58-4.95 1.1 0 4.43.76 4.43.76z"/><path id="sn0zQ" d="M1192.31 4882.97c1.41 1.38 11.87 23.21 13.65 25.85 1.78 2.63 7.91 14.89 14.07 16.64 6.15 1.75 14.5-7.44 4.83-18.4-9.67-10.96-15.82-16.2-19.34-20.59-3.51-4.38-4.6-7.3-6.15-9.64-1.76-2.63-3.06-3.34-6.16-3.06-2.43.22-3.53 6.57-.9 9.2z"/><path id="sn0zR" d="M1216.71 4902.46l4.5.77s10.89 9.74 13.09 11.5c2.2 1.74 7.47 7.44 15.38 10.07 5.56 1.85 19.76 9.64 20.23 10.51.48.88-11 16.65-11.44 16.65-.45 0-14.94-9.2-24.17-14.02-9.24-4.82-16.77-12.08-19.6-16.55-2.82-4.47 2.01-18.93 2.01-18.93z"/><path id="sn0zS" d="M1180.99 4877.42c1.21.71 3.1 4.38 5.02 5.18 1.93.8 4.24-.8 5.4-.4 1.18.4 2.32 2.39 2.71 2.39.39 0 3.43-9.2 3.26-9.55-.17-.36-3.26-5.99-5.58-7.98-2.31-1.99-7.33-5.57-9.27-8.36-1.93-2.8-3.86-5.18-4.63-5.18-.87 0-1.54 3.59 1.16 6.77 2.7 3.19 5.79 7.17 6.18 8.37.38 1.2 1.15 3.98.38 4.78-.77.8-2.7-.4-4.63-.8-1.94-.4-2.62-1.83-3.87-1.2-.76.4-1.54 2.8 3.87 5.98z"/><path id="sn0zT" d="M1268.03 5010.06s1.41 3.34 1.3 4.83c-.12 1.49 36.38-3.63 38.32-4.83-.46-1.61-.62-3.3-.47-4.97.15-1.53-18.9-1.74-25.85-1.53-6.96.2-13.3 6.5-13.3 6.5z"/><path id="sn0zU" d="M1317.68 4966.81c2.25-7.63-.14-16.07-7.53-19.62-7.86-3.77-15.36-7.79-18.06-8.69-.47 0-1.5 5.78-7.19 13.03-4.96 6.29-11.06 8.72-12.6 6.29-3.15-4.94 0-11.23-.9-13.93l-2.25-10.35-15.77-7.16s-4 24.68-8.47 27.83c4.94 2.24 10.79 1.8 12.58 6.73 1.8 4.95-3.14 10.8-2.7 17.98.45 7.18 4.95 8.09 5.85 13.93.9 5.84.9 17.07 1.34 18.87l1.1-.1s12.71-3.32 22.82-4.7c10.1-1.37 22.81-.64 25.05-.5 2.24.15 2.26.82 2.26.82.9-2.7-4.5-8.54-3.14-14.38 1.35-5.84 5.34-18.4 7.61-26.05z"/><path id="sn0zV" d="M1307.69 4981.5c-4.59 5.46-9.5 10.63-14.18 16-2.25 2.6-4.47 5.22-6.65 7.89l-1.36 1.6.38-.06a92.6 92.6 0 0 1 8.94-.74c.81-.37 1.6-.79 2.36-1.25 4-2.77 7.68-4.89 11.03-8.22.57-.57 1.1-1.15 1.6-1.74-.01-.71.06-1.42.22-2.12 1.14-4.94 4.23-14.73 6.5-22.25-3.06 3.52-5.82 7.27-8.84 10.89z"/><path id="sn0zW" d="M1265.22 4888.72a.31.31 0 0 0-.25-.05c-1.08.27-8.13 2.18-10.2 7.16-2.19 5.24-1.72 6.36-2.7 11.23-.9 4.5-2.46 4.82-3.6 5.4-.86.43-1.31 2.95 1.08 3.13a.3.3 0 0 1 .28.3v3.69c0 .3.21.54.5.58.95.13 2.87.38 3.54.38.86 0 .04 3.47-3.1 3.9a.3.3 0 0 0-.25.35c.34 2.65-.12 6.15 2.9 7.87 3.15 1.8 9.88 1.8 11.23 2.25 1.36.45 8.54 9.43 9 15.27.44 5.84 18.08-10.39 16.72-12.23-1.5-2.03-2.35-2.6-3.24-6.19-.85-3.4 3.1-22.8 3.55-24.96a.3.3 0 0 0-.13-.32z"/><path id="sn0zX" d="M1252.97 4901.21s-1.34 0-2.7-2.24c-1.34-2.25.9-3.6.48-6.3-.43-2.69-3.6-4.03-2.7-6.73.9-2.7 1.8-1.35 2.7-2.25.9-.9-2.25-.9-1.8-2.24.45-1.35 1.8-3.6 4.94-1.8 3.14 1.8 4.04 2.25 5.4.9a3.46 3.46 0 0 0 .46-4.5c-.9-1.34-.9-4.49.47-4.49s2.7.47 4.95 2.25c2.24 1.77 2.7-.9 2.7-1.8s.89-2.7 3.59-.47c2.7 2.22 2.7 4.04 5.39 2.7 2.7-1.35.9-2.25 1.8-4.05.9-1.8 2.24-3.14 4.04-2.7 1.8.45 4.94 1.8 5.84 4.5.9 2.7-1.35 4.04 0 4.94 1.35.9 2.7 2.25 6.3 1.8 3.59-.45 4.94.47 5.84 1.8a6.55 6.55 0 0 1 .28 6.12c-.6 1.1.26 1.1 1.5 1.1 1.36 0 1.8 1.34.9 3.13-.9 1.8 1.35 1.35 3.6.9 2.25-.44 3.15.47 3.6 1.8.45 1.33-.47 2.7-.9 3.14.9.48 2.7 7.2-1.8 8.1 2.25 1.8 2.25 4.04 1.8 5.83-.47 2.25-4.5 1.35-4.5 1.35s.48 2.24-.46 3.6c-.95 1.35-3.15.9-3.6 2.7-.45 1.79.9 2.24.9 3.59a3.38 3.38 0 0 1-4.04 3.14c-2.7-.47-3.6 0-3.15.9.45.9.9 2.7-.47 2.7s-4.04-2.25-5.84-.9c-1.8 1.34-.8 3-.77 3.39 0 .1.33 1.55-1.92-.7 0 0-3.15-3.14-3.15-5.84 0-2.7-2.7-2.7-1.8-4.04.9-1.34-4.5-9.44-4.5-9.44s-1.7 2.23-3.62 1.64c-1.36-.41 1.32-.84 1.37-2.1.04-1-.58.95-2.38.54-.61-.07-1.1-.53-1.2-1.13a.08.08 0 0 1 .15-.07c.24.27.74.61 1.51 0a2.92 2.92 0 0 0 .11-4.37c-.47-.47-1.1-.85-1.69-1.4-2.14-2.05.33-4.1.36-4.8.06-1.34-2.61-1.71-2.76-4.16-.08-1.41.31-1.91.63-2.1a.2.2 0 0 0 0-.33 1.47 1.47 0 0 0-1.44.3c-.55.51-.47 1.35-.9 1.8-.43.45-2.04-2.1-1.13-3.76.92-1.66 2.13-2.27-1.56-1.61-3.7.66-5.33 1.92-6.78 3.13-2.7 2.25-4.05 8.53-4.05 8.53z"/><path id="sn0zY" d="M1283.78 4915.17c0-2.97-1.88-5.37-4.2-5.37-2.32 0-4.29 1.46-4.29 4.42 0 2.97 1.97 6.32 4.3 6.32 2.31 0 4.2-2.4 4.2-5.37z"/><path id="sn0zZ" d="M1284.49 5173.44c1.04 4.34 4.99 15.13 3.54 17.54-1.45 2.42-1.37 10.54 5.31 8.37s7.73-1.6 6.44-8.94c-1.29-7.33-.32-16.18-1.61-19.3-1.29-3.12-13.68 2.33-13.68 2.33z"/><path id="sn0zaa" d="M1336.64 5171.18c1.29 1.45 5.87 5.15 7.97 8.94 2.1 3.8 2.41 7.06 3.7 6.84 1.29-.21 10.44 2.13 10.68-3.02.24-5.15-1.75-8.24-4-11.14-2.26-2.9-4.91-9.8-7.58-11.28-2.67-1.47-10.77 9.66-10.77 9.66z"/><path id="sn0zab" d="M1268.6 5014.06c-.2 1.75.46 3.69.1 5.24-.38 1.55-3.65 9.5-4.76 21.82-2.75 30.94 8.94 65.01 8.73 70.54-.2 5.53 1.07 12.62 1.65 17.37.59 4.75 7.67 44.83 8.25 46.87.59 2.03 3.2 3 9.32 2.42 6.11-.58 7.66-2.23 8.54-3 .87-.78-1.46-6.31-1.36-10.2.1-3.88 1.45-9.6.97-19.6-.49-10-3.7-15.33-3.77-20.66-.07-5.34 1.56-13.3 1.94-29.5.39-16.2 4.97-42.07.11-52.96-4.86-10.88-29.73-28.34-29.73-28.34z"/><path id="sn0zac" d="M1268.91 5022.7c.41-1.71-.75-8.73-.3-8.64.44.1 37.77-4.18 39.01-4.4 1.24-.22 1.25 4.1 2.54 4.93 1.29.85 11.95 15.21 14.28 21.76 2.34 6.56-6.78.24-15.09 2.93-8.3 2.7-14.39 20.13-17.88 20.83-3.5.7-27.84-14.86-27.5-18.14.35-3.27 4.38-17.02 4.94-19.28z"/><path id="sn0zad" d="M1298 5112.65c2.07 6.33 16.12 35.43 25.68 46.12 9.56 10.69 8.44 14.43 10.31 15.74 1.87 1.32 8.25-1.12 11.44-3.37 3.18-2.25 5.06-5.81 4.7-8.25-.36-2.44-10.31-17.62-14.62-31.11-4.31-13.5-9.56-16.5-10.5-19.69-.94-3.19 6.75-33.74 4.88-50.42-1.88-16.69-3.5-24.61-8.47-31.03-4.97-6.43-24.23-6.28-29.08-1.1-4.85 5.2-6.87 44.66 5.66 83.11z"/><path id="sn0zae" d="M1288.04 5190.98s-6.22 3.66-10 7.53c-3.79 3.88-5.32 5.88-6.2 6.2-.89.33-2.9 0-4.83 3.22-1.93 3.22-4.83 7.48 3.77 9.01 8.59 1.53 14-2.73 20.11-5.07 6.12-2.33 11.5-3.94 12.8-6.2 1.29-2.25-2.13-13.82-3.92-15.24-.75-.77-.27 1.57-1.95 2.45-1.7.89-3.77 2.35-5.48 2.35-1.7 0-.96-2.17-2.41-3.37-1.45-1.2-1.9-.88-1.9-.88z"/><path id="sn0zaf" d="M1290.52 5207.84a56.16 56.16 0 0 0-7.76 2.95 19.67 19.67 0 0 1-6.62 1.98c-3.65.47-7.75.35-10.66-2.08-1.12 2.55-.94 5.12 5.32 6.23 8.6 1.53 14-2.74 20.11-5.07 6.12-2.34 11.51-3.95 12.8-6.2.42-.74.33-2.49-.03-4.55-3.47 3.3-8.47 5.2-13.16 6.74z"/><path id="sn0zag" d="M1346.51 5184.9a41.93 41.93 0 0 0-1.29 8.3c-.16 4.18.57 8.93-.47 10.21-1.03 1.28-3.13 1.53-4.9 3.62-1.77 2.1-2.01 4.27-1.53 5.23.48.96 3.54 2.65 9.57 2.35 6.04-.3 9.25-1.2 10.7-3.94 1.45-2.74 4.19-13.18 5.88-18.1 1.69-4.93 4.18-8.95 2.17-11.51-2-2.56-6.77-7.59-8.88-7.34-2.1.24-1.69.56-1.69.56a16 16 0 0 1 .75 4.25c.08 2.42-1.53 5.96-2.57 6.76-1.05.8-2.36-.8-4.43-1.04a4.9 4.9 0 0 0-3.3.65z"/><path id="sn0zah" d="M1366.63 5181.04c-.3-.38-.65-.81-1.05-1.27-.18.52-.38 1.03-.6 1.53-.9 2.04-1.94 3.98-2.74 6.04-.8 3.35-1.65 6.7-2.55 10.01-1.03 3.77-1.91 8.34-4.51 11.4-2.47 2.9-6.8 2.87-10.36 2.89-2.56 0-4.83-.66-6.32-2.46-.52 1.3-.52 2.44-.2 3.07.47.97 3.53 2.66 9.57 2.36 6.04-.3 9.26-1.2 10.7-3.95 1.45-2.73 4.19-13.17 5.88-18.1 1.69-4.93 4.2-8.95 2.18-11.52z"/><path id="sn0zai" d="M1257.85 4909.18c-.42-.02-.74-.57-.7-1.23.02-.67.37-1.2.8-1.18.4.02.73.57.7 1.23-.03.67-.38 1.2-.8 1.18z"/><path id="sn0zaj" d="M1259.81 4902.93c-.1 0-.2-.05-.27-.13a4.46 4.46 0 0 0-2.61-1.49.35.35 0 1 1 .09-.7c1.2.2 2.29.81 3.07 1.74a.35.35 0 0 1-.27.57z"/><path id="sn0zak" d="M1278.91 4917.89a.35.35 0 1 1 0-.7c.2 0 .4-.08.52-.23a.82.82 0 0 0 .18-.52c0-.2-.08-.53-.38-.53-.49.04-.96-.17-1.27-.55a1.62 1.62 0 0 1-.14-1.47c.31-.99 2.14-1.75 2.36-1.83a.35.35 0 1 1 .26.66c-.67.26-1.78.88-1.94 1.38-.12.28-.1.59.04.85.18.18.44.28.7.25a1.13 1.13 0 0 1 1.08 1.24c0 .36-.12.7-.34.97-.27.32-.66.5-1.07.48z"/><path id="sn0zal" d="M1278.86 4921.12c-.33 0-.66-.03-1-.08-1.76-.28-2.37-2.03-2.4-2.1a.35.35 0 0 1 .67-.22c.3.82 1 1.44 1.85 1.63a4.8 4.8 0 0 0 3.68-.8.36.36 0 0 1 .47.55c-.95.7-2.1 1.06-3.27 1.02z"/><path id="sn0zam" d="M1273.65 4950.55a.35.35 0 0 1-.35-.36 9.6 9.6 0 0 0-.6-2.98c-.94-2.77-3.78-6.2-3.81-6.23a.36.36 0 1 1 .54-.47c.12.15 2.94 3.56 3.94 6.45.39 1.04.6 2.13.63 3.24 0 .2-.16.35-.35.35z"/><path id="sn0zan" d="M1271.72 4974.55h-.07a.35.35 0 0 1-.28-.41c.55-3 3.44-6.76 3.56-6.91a.35.35 0 1 1 .56.43c-.03.04-2.9 3.77-3.43 6.59a.35.35 0 0 1-.34.3z"/><path id="sn0zao" d="M1274.9 4970.9a.35.35 0 0 1-.32-.48c.88-2.08 4.32-4.7 4.47-4.8a.35.35 0 1 1 .42.56c-.03.02-3.43 2.6-4.24 4.51a.35.35 0 0 1-.33.2z"/><path id="sn0zap" d="M1278.9 5019.66c-.2.01-.4-.06-.55-.2-.32-.33-.24-.88-.15-1.57.1-.53.12-1.06.08-1.59-.1-1.06-.04-2.12.2-3.16l.03-.15.13-.07c.09-.05.9-.47 3.3-.55a.35.35 0 1 1 0 .7c-.96-.01-1.91.12-2.83.4-.18.9-.23 1.83-.14 2.75.05.59.03 1.18-.08 1.76-.07.32-.08.65-.04.98h.1l1.26-.12c2.12-.2 6.55-.62 8-1.05a.35.35 0 1 1 .2.68c-1.51.47-5.82.86-8.14 1.07l-1.23.12z"/><path id="sn0zaq" d="M1270.06 5020.34a.35.35 0 1 1 0-.7 33.29 33.29 0 0 1 3.26-.44.35.35 0 1 1 .06.7c-1.1.1-2.12.26-2.73.36a5 5 0 0 1-.59.08z"/><path id="sn0zar" d="M1281.72 5038.79a16 16 0 0 1-1.7-.08c-1.16-.13-1-1.66-.85-3.14.05-.47.1-1 .1-1.41 0-1.59-.61-13.58-.62-13.7a.35.35 0 0 1 .33-.37c.2 0 .36.14.38.33.02.5.62 12.13.62 13.74 0 .47-.05.99-.1 1.5-.1 1.03-.24 2.31.22 2.35.8.07 1.62.1 2.43.06a.35.35 0 0 1 .37.34c0 .19-.15.35-.34.36-.03 0-.37.02-.84.02z"/><path id="sn0zas" d="M1283.35 5015.86c.04.76-.54 1.42-1.3 1.46-.83 0-1.68-.76-1.68-1.46 0-.78.63-1.41 1.41-1.41.81-.01 1.5.6 1.57 1.41z"/><path id="sn0zat" d="M1316.31 5038.61c-5.07 0-13.25-4.03-16.28-7-3.4-3.35-4.23-11.54-4.26-11.89a.35.35 0 1 1 .7-.07c0 .09.84 8.3 4.06 11.45 1.63 1.6 4.7 3.46 8 4.85 3.6 1.52 6.84 2.2 8.89 1.88a.35.35 0 1 1 .11.7c-.4.06-.81.09-1.22.08z"/><path id="sn0zau" d="M1305.75 5013.87a.35.35 0 0 1-.35-.3 292.7 292.7 0 0 1-.26-2.36.35.35 0 1 1 .7-.07l.25 2.35c.03.2-.11.37-.3.4z"/><path id="sn0zav" d="M1310.47 5022.05a.35.35 0 0 1-.3-.15c-.7-1.03-1.57-2.22-2.35-3.26l-.47-.64a.35.35 0 1 1 .57-.41l.47.63c.77 1.05 1.64 2.24 2.36 3.3a.35.35 0 0 1-.3.55zm4.47 8.52a.35.35 0 0 1-.33-.22c-.64-1.54-1.3-3-2-4.35a.35.35 0 0 1 .63-.32c.7 1.36 1.38 2.83 2.03 4.4a.35.35 0 0 1-.33.47zm3.11 9.08c-.15 0-.3-.1-.33-.26-.44-1.55-.91-3.09-1.42-4.57a.35.35 0 1 1 .67-.23c.51 1.5 1 3.05 1.41 4.62a.35.35 0 0 1-.24.43zm2.08 9.39a.35.35 0 0 1-.35-.3 74.7 74.7 0 0 0-.93-4.7.35.35 0 1 1 .68-.15c.34 1.55.65 3.14.94 4.74a.35.35 0 0 1-.29.41zm1.16 9.55a.35.35 0 0 1-.35-.33c-.12-1.6-.28-3.2-.46-4.77a.35.35 0 0 1 .14-.32c.1-.08.23-.1.34-.04.12.04.2.15.21.28.2 1.57.35 3.19.47 4.8.01.2-.13.36-.32.38zm.33 9.6a.35.35 0 0 1-.35-.35v-.97c0-1.28 0-2.56-.06-3.82a.35.35 0 0 1 .35-.37c.19 0 .34.16.35.35.04 1.27.06 2.56.06 3.84v.98c0 .19-.15.34-.33.35zm-.29 9.62a.35.35 0 0 1-.34-.36l.16-4.81c.01-.2.17-.34.37-.34a.35.35 0 0 1 .34.37c-.06 1.66-.12 3.26-.16 4.8 0 .2-.16.35-.35.35zm-.22 9.61a.35.35 0 0 1-.35-.36l.1-4.8a.38.38 0 0 1 .36-.34.35.35 0 0 1 .34.36l-.1 4.8c0 .18-.15.34-.34.34zm-.05 9.63a.35.35 0 0 1-.36-.35v-2.4-2.42a.35.35 0 0 1 .71 0V5096.7c0 .2-.16.35-.35.35zm.26 9.62a.35.35 0 0 1-.35-.34c-.07-1.46-.13-3.08-.17-4.81 0-.1.03-.18.1-.25.06-.07.14-.1.24-.11.19 0 .34.15.35.34.04 1.73.1 3.34.17 4.8 0 .1-.02.18-.09.25a.35.35 0 0 1-.24.12zm1.13 9.54c-.16 0-.3-.11-.34-.27a33.03 33.03 0 0 1-.78-4.8c0-.18.14-.34.32-.36.2-.02.36.11.39.3.14 1.58.39 3.16.75 4.7a.35.35 0 0 1-.25.44zm4.2 8.3c-.85-1.41-1.74-2.9-2.46-4.15a.35.35 0 0 1 .6-.35c.72 1.24 1.61 2.72 2.46 4.13a.35.35 0 0 1-.6.37zm5.25 8.43a.35.35 0 0 1-.3-.17 375.7 375.7 0 0 0-2.46-4.14.35.35 0 1 1 .6-.36l2.47 4.14a.35.35 0 0 1-.3.54zm4.6 8.47a.35.35 0 0 1-.31-.2 92.84 92.84 0 0 0-2.22-4.23.35.35 0 0 1 .31-.55c.14 0 .25.09.3.21.87 1.58 1.6 2.98 2.24 4.28a.35.35 0 0 1-.32.51zm3.44 9a.35.35 0 0 1-.33-.24c-.33-.94-.63-1.83-.88-2.71a26 26 0 0 0-.61-1.89.36.36 0 0 1 .39-.47c.12.02.23.1.27.22.26.7.47 1.34.63 1.92.24.86.54 1.76.87 2.67a.35.35 0 0 1-.33.47zm4.18 8.64a.35.35 0 0 1-.31-.17 58.2 58.2 0 0 1-2.3-4.26.35.35 0 1 1 .64-.31c.67 1.38 1.41 2.8 2.27 4.2a.35.35 0 0 1-.3.54z"/><path id="sn0zaw" d="M1348.05 5164.97a.35.35 0 0 1-.28-.13c0-.03-.56-.72-1.41-1.92a.35.35 0 0 1 .58-.39 32.95 32.95 0 0 0 1.37 1.88.35.35 0 0 1-.28.57z"/><path id="sn0zax" d="M1279.74 5208.55a.35.35 0 0 1-.3-.17c-.82-1.34-2.85-2.52-4.43-2.98-1-.35-2.05-.47-3.1-.37a.35.35 0 0 1-.14-.69c.05 0 1.3-.26 3.44.38 1.65.47 3.88 1.73 4.83 3.3.1.16.04.36-.12.46a.35.35 0 0 1-.18.07z"/><path id="sn0zay" d="M1282.28 5204.3a.35.35 0 0 1-.25-.1 7.29 7.29 0 0 0-3.39-2.1c-1-.35-2.05-.47-3.1-.37a.35.35 0 0 1-.14-.69c.05 0 1.3-.25 3.44.38a8 8 0 0 1 3.69 2.27.35.35 0 0 1-.25.6z"/><path id="sn0zaz" d="M1286.41 5202.08a.35.35 0 0 1-.3-.17c-.82-1.34-2.85-2.52-4.43-2.98-1-.35-2.05-.47-3.1-.37a.35.35 0 0 1-.14-.69c.05 0 1.3-.26 3.44.38 1.65.47 3.88 1.73 4.83 3.3.1.16.04.36-.12.46a.35.35 0 0 1-.18.07z"/><path id="sn0zaA" d="M1290.17 5198.72a.35.35 0 0 1-.3-.17c-.82-1.34-2.85-2.52-4.43-2.98-1-.35-2.05-.47-3.1-.37a.35.35 0 0 1-.14-.69c.05 0 1.29-.26 3.44.38 1.65.47 3.88 1.73 4.83 3.3.1.16.04.36-.12.46a.35.35 0 0 1-.18.07z"/><path id="sn0zaB" d="M1278.76 5206.55a.35.35 0 0 1-.16-.67c.07-.03 6-2.95 8.78-5a.35.35 0 0 1 .41.58c-2.82 2.07-8.63 4.93-8.88 5.05a.35.35 0 0 1-.15.04z"/><path id="sn0zaC" d="M1353.12 5204.76a.35.35 0 0 1-.18-.06c-1.7-1-4.03-2-5.48-1.7a27.4 27.4 0 0 0-2.77.64.35.35 0 1 1-.22-.67c.03 0 .72-.23 2.85-.66 2.13-.43 5.1 1.26 5.98 1.79a.35.35 0 0 1-.18.65z"/><path id="sn0zaD" d="M1346 5199.59a.35.35 0 0 1-.23-.63c.04-.03 1.02-.83 3.22-1.26a8 8 0 0 1 4.32.3.35.35 0 0 1-.2.67 8.16 8.16 0 0 0-6.9.84.35.35 0 0 1-.21.08z"/><path id="sn0zaE" d="M1345.38 5195.43a.35.35 0 0 1-.23-.63c.04-.03 1.02-.82 3.22-1.26 1.7-.34 4.23-.28 5.81.67a.35.35 0 0 1-.36.6c-1.36-.8-3.7-.9-5.32-.58a7.07 7.07 0 0 0-2.9 1.12.35.35 0 0 1-.22.08z"/><path id="sn0zaF" d="M1345.53 5190.59a.35.35 0 0 1-.23-.63c.04-.03 1.02-.82 3.22-1.26 1.7-.34 4.23-.28 5.81.67a.35.35 0 1 1-.36.6c-1.36-.8-3.7-.9-5.32-.58a7.24 7.24 0 0 0-2.9 1.12.35.35 0 0 1-.22.08z"/><path id="sn0zaG" d="M1352.77 5203.94a.35.35 0 0 1-.33-.47c.02-.07 2.49-7.59 2.93-11.12a.35.35 0 1 1 .7.09c-.47 3.6-2.86 10.94-2.96 11.25a.35.35 0 0 1-.34.25z"/><path id="sn0zaH" d="M1264 4913.5c0-.9-1.25-.97-2.81-.97-1.57 0-2.8 1.17-2.8 2.07 0 .9 1.22 1.2 2.8 1.2 1.57 0 2.82-1.4 2.82-2.3z"/><path id="sn0zaI" d="M1210.25 5018.93l1.48 10.89s1.7 4.2 1.51 7.1c-.18 2.9 44.82-1.82 40.74-8.9-4.09-7.07-5.18-8.61-7.9-13.7-2.71-5.07-33.47.44-35.83 4.61z"/><path id="sn0zaJ" d="M1243.98 5184.24l-1.94 5.9s2.51 5.33 3.76 5.68c1.26.35 14.28 1.41 14.28 1.04 0-.37-3.2-6.02-3.2-6.02s-1.48-3.48-1.82-6.37c-.35-2.9-11.08-.23-11.08-.23z"/><path id="sn0zaK" d="M1220.86 5202.16c2.55-2.83 6.84-3.89 9.22-4.24 2.38-.35 8.43-8.3 10.57-8.73 2.13-.42-.44 1.82 4.15 2.58 4.6.75 10.36-.06 12.04-1.34 1.69-1.29 3.51 2.08 4.45 4.75.94 2.68 2.53 6.66 2.06 8.36-.46 1.7-2.17 3.47-4.88 4.78-2.7 1.31-12.7 1.41-19.2 1.29-6.48-.13-16.8.13-18.17-3.19-1.38-3.31-.85-3.6-.24-4.26z"/><path id="sn0zaL" d="M1249.98 5205.86c-9.89.52-20.21.7-29.74-2.28.14 1 .43 1.96.86 2.86 1.37 3.3 11.7 3.04 18.18 3.18 6.48.15 16.47.03 19.2-1.28 2.71-1.31 4.41-3.07 4.88-4.78.11-.62.1-1.26-.04-1.88-3.74 2.73-8.55 3.93-13.34 4.18z"/><path id="sn0zaM" d="M1221.07 4963a44.48 44.48 0 0 1-5.97-5.12c-2.88-2.99-2.82-7.71-2.82-7.71l-5.25-18.3-8.2-20.81s-3.11-4.83-9.7-2c-.25.1-1.78.83-3.64 2.95-2.18 2.49-2 7.9-3.45 11.02-1.44 3.12.07 4.92-2.23 10.04-2.3 5.12-.05 19.12 1.2 20.52 1.24 1.4 5.31.66 8.94 2.33 3.63 1.66 6.93 9.48 6.93 9.48l10.43 2.66z"/><path id="sn0zaN" d="M1189.67 4932.37l.3.03c.14-.46.38-.89.7-1.25l.17-.16a76.42 76.42 0 0 1-9.59-3.76l-.07.88c1.22.48 2.4 1.04 3.53 1.7 1.64.97 3.25 1.72 4.96 2.56z"/><path id="sn0zaO" d="M1195.68 4935.47c-.77.41-1.62.72-2.41 1.1-2.15 1.04-4.27 2.1-6.55 2.74.67 1.88 2.02 3.3 4.18 3.6 1.89.25 4.21-.41 5.13-2.25.4-.89.58-1.87.52-2.85-.2-.8-.48-1.6-.83-2.35z"/><path id="sn0zaP" d="M1181.49 4953.9c1.6.92 5.21.47 8.47 1.98 1.17.6 2.2 1.44 3.05 2.45a16.6 16.6 0 0 0 1.78-3.64c.2-.62.33-1.27.35-1.92 0-.53-.1-1.28-.78-1.02-1.08.4-2.18.74-3.3 1.02-3.14.8-6.37 1.37-9.57 1.13z"/><path id="sn0zaQ" d="M1195.54 4964.88c-3.03.44-10.32 4.75-11.36 10.2-1.05 5.46-2.26 11-3.9 14.26-1.65 3.25-4.95 9.14-10.93 16.88-5.98 7.75-4.16 15.06-1.04 16.8 3.13 1.75 5.46 3.51 9.02.69 3.55-2.83 12.31-11.44 16.04-17.68 3.74-6.25 8.33-11.88 9.89-15.49 1.55-3.6 6.64-12.86 2.25-20.32-3.46-5.88-9.97-5.34-9.97-5.34z"/><path id="sn0zaR" d="M1154.94 5000.07c5.52 2.81 10.85 6 15.94 9.52 1.08.84 5.23 14.56 5.23 14.56s-2.99 3.7-5.4 3.7c-2.4 0-20.16-7.5-27.2-13.65-7.05-6.15-16.18-15.15-19.09-17.76-2.9-2.6-3.48-13.21 3.9-9.34l1.76.9c8.04 4.11 22.95 11.13 24.86 12.07z"/><path id="sn0zaS" d="M1184.67 5010.15c-3.25 2.52-6.56 5.28-10.12 7.36a14.12 14.12 0 0 1-8.79 1.82c.5 1.76 1.41 3.06 2.52 3.68 3.13 1.76 5.48 3.52 9.04.7 3.56-2.83 12.31-11.44 16.04-17.68 2.3-3.85 4.93-7.47 6.97-10.52a118.68 118.68 0 0 1-15.66 14.64z"/><path id="sn0zaT" d="M1164.27 5019.11c-4.23-.79-8.2-2.85-12.02-4.78-3.67-1.86-7.5-3.41-10.97-5.65-6.22-4-11.52-9.23-17.69-13.29.22.4.5.75.82 1.05 2.9 2.61 12.04 11.62 19.09 17.76 7.05 6.15 24.8 13.65 27.21 13.65 2.4 0 5.41-3.71 5.41-3.71s-.94-3.07-2.02-6.38a14.55 14.55 0 0 1-9.83 1.35z"/><path id="sn0zaU" d="M1121.03 4970.8s-.89 3.03.73 5.08c1.6 2.05 1.12 4.17.64 4.42-.48.24-5.97.24-9.68-2.54-3.72-2.78-4.77-4.5-4.77-4.5s-1.53-.58-2.1 1.8c-.56 2.38.08 3.11.08 3.11s-1.45 1.23-.8 4.18c-.57.98-.09 2.86.72 4.17.8 1.3-.24 1.8-.08 3.03.16 1.23 3.96 3.69 7.59 4.34 3.62.65 7.02.82 9.52 1.88 2.5 1.07 5.09.25 4.84-1.72-.24-1.96 1.55-5.91 1.55-5.91s-.66-.94-1.3-4.9c-.65-3.95.07-5.48-1.22-6.79-2.34-2.39-4.59-8.02-5.72-5.65z"/><path id="sn0zaV" d="M1194.58 4993.36s-2.94 8.7 1.82 12.5c4.76 3.78 4.6 1.93 5.55 3.51.96 1.59 4.71 6.07 6.07 9.68 1.37 3.6 3.3 8.44 3.3 8.44s6.85-7.74 14.4-10.12c7.55-2.37 17.95-3.6 21.77-2.2-1.91-4.57-3.47-6.77-3.56-13.8-.09-7.05-.7-19.71-2.43-25.78-1.73-6.07-7.03-12.04-9.8-13.37-1.97-.94-13.39-1.54-13.39-1.54s-.53 1.41-3 2.16c-6.25 1.93-13.23 2.05-19.26 1.5-6.03-.56-1.47 29.02-1.47 29.02z"/><path id="sn0zaW" d="M1215.57 4965.23c-.83 1.71-4.77 5.58-3.71 7.5.67 1.21 3.26 1.2 4.44 1.41 1.44.3 2.84.74 4.18 1.34 3.65 1.41 6.52 0 10.17-.2 5.92-.31 4.3 6.2 5.01 9.89.9 4.7 4.24 7.85 8.11 10.24-.28-6.85-.94-15.2-2.26-19.8-1.74-6.07-7.03-12.05-9.8-13.37-1.97-.94-13.4-1.54-13.4-1.54s-.33.9-1.75 1.65c-.21 1-.54 1.97-.99 2.88z"/><path id="sn0zaX" d="M1201.96 5009.37c.3.52.9 1.33 1.62 2.32a26.7 26.7 0 0 0 2.53-4.23 15.6 15.6 0 0 0 1.65-6.94c.07-2.54-.14-5.08-.64-7.57a11.62 11.62 0 0 0-1.96-4.18c-1.27.98-1.88 2.14-3.1 3.1a64.6 64.6 0 0 1-8.17 5.51l-.13.06c-.27 2.79.03 6.34 2.64 8.42 4.78 3.78 4.6 1.93 5.56 3.51z"/><path id="sn0zaY" d="M1197.62 4902.1c-7.62.98-5.89 2.66-7.79 6.52.5.03.98.12 1.45.28.27.18.54 2.66.27 3.85-.26 1.2-2.17 6.89-2.44 8.08-.27 1.2 1.27.83 1.45 1.65.18.83-1.18 3.22-1 5.05.18 1.84 2.45 11.3 3.08 14.12.64 2.82 5.07 8.84 10.77 8.38 5.7-.46 8.87.15 8.87.15a13.24 13.24 0 0 1 4.08-3.09c2.72-1.37 12.31-6.42 12.05-14.23-.27-7.8-4.71-21.76-6.88-24.42-2.62-3.2-12.5-7.8-23.91-6.34z"/><path id="sn0zaZ" d="M1221.52 4908.41a13.65 13.65 0 0 0-4.14-3.04v.53a2.5 2.5 0 0 1-.68 1.68c-.2.2-.43.37-.69.47a2.4 2.4 0 0 1-.51 2.13c-1.74 2.09.25 6.98.88 9.2 1.04 3.73 2.63 7.71 2.4 11.64-.25 4.23-2.9 7.16-5.18 10.47-1.77 2.58-2.8 5.5-2.53 8.47.79.08 1.2.15 1.2.15a13.24 13.24 0 0 1 4.09-3.08c2.71-1.38 12.3-6.43 12.04-14.23-.27-7.8-4.7-21.7-6.88-24.39z"/><path id="sn0zba" d="M1186.3 4939.37s2.53 2.66 4.98.55c2.44-2.11 3.98-5.14 3.53-7.06-.64-2.73-2.36-5.33-5.8-3.67l-2.82 7.44z"/><path id="sn0zbb" d="M1226.96 5200.68s-1.7 2.78-1.48 3.36c.23.58 14.27 6.6 14.27 6.6l1.49-4.87-1.37-4.75c-.57-1.97-12.9-.34-12.9-.34z"/><path id="sn0zbc" d="M1203.55 5211.22c2.92-2.46 7.31-2.9 9.71-2.9 2.4 0 9.48-7.05 11.65-7.17 2.17-.13-.69 1.73 3.76 3.12 4.46 1.39 10.28 1.41 12.1.35 1.83-1.06 3.2 2.54 3.77 5.33.57 2.78 1.6 6.94.91 8.57-.68 1.62-2.62 3.12-5.48 4.05-2.85.92-12.79-.35-19.18-1.41-6.4-1.07-16.68-2.2-17.59-5.68-.91-3.47-.33-3.68.35-4.26z"/><path id="sn0zbd" d="M1245.33 5216.91c-5.85 1.76-11.73 1.38-17.74.95-4.83-.36-9.7-.52-14.52-.95-3.51-.32-7.43-.9-10.24-3.2.1.61.23 1.22.4 1.81.9 3.47 11.18 4.63 17.58 5.68 6.4 1.04 16.33 2.31 19.18 1.4 2.86-.9 4.8-2.42 5.48-4.04.2-.55.27-1.13.23-1.71z"/><path id="sn0zbe" d="M1237.41 5028.44c-2.5.05-10.54-.86-13.27 13.9-2.73 14.76-9.63 37.32-10.15 47.53-.5 10.2-2.17 23.58 2.23 28.79 4.4 5.2 17.57 12.5 24.3-2.07s19.33-47.27 22.15-57.68c2.82-10.4-25.26-30.47-25.26-30.47z"/><path id="sn0zbf" d="M1223.35 5104.03l-11.68 3.04s2.35 9.83 8.63 24.47c6.27 14.64 21.9 48.6 21.75 53.1-.15 4.51-.27 2.52-.27 2.52s-.23 1.8 7.06 2.05c7.3.25 7.56-2.45 7.56-2.45s-.41-27.2-2.24-40c-2.75-19.23-14.12-32.58-15.46-38.44-1.4-5.98-15.35-4.29-15.35-4.29z"/><path id="sn0zbg" d="M1212.44 5029.43s15.65-9.88 27.03-10.16c11.4-.27 10.58 0 10.58 0s6.85 10.87 9.6 15.6c2.74 4.73 5.2 14.44 2.87 24.9-1.98 8.95-14.59 6.88-18.46 15.33 0 0-35.87-12.12-34.5-24.94 1.37-12.82 2.88-20.73 2.88-20.73z"/><path id="sn0zbh" d="M1224.03 5037.54c-2.49-.17-10.43-1.82-14.47 12.63-4.03 14.44-12.93 36.28-14.36 46.38-1.42 10.1-4.27 23.28-.36 28.87 3.92 5.6 16.38 14.08 24.38.18s23.49-45.3 27.22-55.4c3.74-10.1-22.41-32.66-22.41-32.66z"/><path id="sn0zbi" d="M1204.99 5119.65l-11.57 3.43s2.67 9.75 9.41 24.18c6.75 14.43 23.49 47.82 23.49 52.33 0 4.5-.18 2.53-.18 2.53s-.14 1.82 7.14 1.82c7.28 0 7.47-2.7 7.47-2.7s-1.31-27.16-3.56-39.88c-3.37-19.13-15.16-32.08-16.72-37.9-1.6-5.97-15.48-3.8-15.48-3.8z"/><path id="sn0zbj" d="M1176.37 4993.89s7.03 2.64 9.63 4.3c2.6 1.68 8.24 7.92 8.24 7.92s8.85-13.1 11.45-18.03c2.6-4.93 4.07-15.3-1.04-20.4-5.12-5.1-12.14-2.9-13.45-2.2-1.3.7-5.94 3.13-7.37 7.91-1.05 3.51-4.5 13.46-5.46 15.49-.96 2.02-2 5-2 5z"/><path id="sn0zbk" d="M1190.9 4909.82a.35.35 0 0 1-.27-.58 5.85 5.85 0 0 1 3.97-1.9c2.01-.05 4.02.04 6.02.27a.35.35 0 0 1-.08.7 43.87 43.87 0 0 0-5.9-.27c-1.32.09-2.56.68-3.46 1.65a.35.35 0 0 1-.28.13z"/><path id="sn0zbl" d="M1190.3 4915.4a.35.35 0 0 1-.27-.57c2.78-3.46 8.94-3.36 9.21-3.36a.35.35 0 1 1 0 .7c-.05 0-6.08-.09-8.65 3.1a.35.35 0 0 1-.29.13z"/><path id="sn0zbm" d="M1189.3 4919.7a.35.35 0 0 1-.18-.65c.38-.34.71-.71 1-1.13a11.2 11.2 0 0 1 2.23-2.29c.52-.4 1.13-.67 1.77-.8a.35.35 0 0 1 .09.7c-.53.13-1.03.37-1.47.7-.78.61-1.47 1.33-2.06 2.14-.33.49-.74.93-1.21 1.3a.35.35 0 0 1-.18.04z"/><path id="sn0zbn" d="M1188.67 4921.6a.35.35 0 0 1-.09-.7c.04 0 .61-.23 1.86-1.62a26.2 26.2 0 0 1 3.71-3.2.35.35 0 1 1 .41.57c-1.29.92-2.49 1.96-3.6 3.1-1.4 1.59-2.09 1.8-2.2 1.83z"/><path id="sn0zbo" d="M1200.3 4946.39h-.46c-4.48-.11-5.96-1.37-6.02-1.41a.36.36 0 0 1 .47-.53c.03 0 1.41 1.13 5.57 1.24 2.66.06 5.3-.41 7.77-1.38a.35.35 0 0 1 .28.65c-2.42.95-5 1.43-7.6 1.43z"/><path id="sn0zbp" d="M1189.42 4926.72a.35.35 0 1 1 0-.71c1.3 0 2.7-.98 3.67-1.82-.33.08-.7.17-1.15.26a5.14 5.14 0 0 1-3.85-.8.35.35 0 1 1 .42-.57c.98.64 2.16.88 3.3.67 1.92-.37 2.53-.78 2.54-.78a.35.35 0 0 1 .47.52c-.12.13-2.83 3.22-5.4 3.23z"/><path id="sn0zbq" d="M1188.87 4936.73a.35.35 0 0 1-.09-.7c.36-.24.6-.61.67-1.04a.2.2 0 0 0-.15-.22 1.24 1.24 0 0 1-.6-1.86c.6-.98 2.1-1.86 2.6-1.8a.35.35 0 0 1-.07.7c-.78.29-1.45.8-1.94 1.46a.56.56 0 0 0-.08.47.6.6 0 0 0 .33.35c.4.14.65.53.61.94a2.15 2.15 0 0 1-1.2 1.67z"/><path id="sn0zbr" d="M1238.53 5022.32c-4.5.9-10.82 2.97-16.29 5.06l.71 5.64a119.5 119.5 0 0 1 18.32-5.17l-1.88-5.65z"/><path id="sn0zbs" d="M1211.45 5032.36s-.94 6.25-.72 6.47c.22.23 4.4-2.67 10.5-5.13l-.6-5.68c-4.39 1.73-7.97 3.4-9.18 4.34z"/><path id="sn0zbt" d="M1253.8 5024.23c-.72-.73-1.51-2.63-2.01-2.78-.5-.15-3.77-.73-10.71.4l2 5.66c5.85-.89 10.73-.88 11.28-.74.56.14.16-1.81-.56-2.54z"/><path id="sn0zbu" d="M1179.78 4932.2a2.93 2.93 0 0 1-2.41-1.16c-1.32-1.68-1.28-4.75-.97-6.02l.17-.63c.2-.64 1.11-3.3 1.67-3.69.42-.28 1.96-.12 3.18.07a.35.35 0 1 1-.1.7c-1.1-.18-2.45-.28-2.7-.18a13.94 13.94 0 0 0-1.54 3.9c-.27 1.11-.3 3.94.84 5.4.44.6 1.13.93 1.86.9a.35.35 0 0 1 0 .7z"/><path id="sn0zbv" d="M1188.45 4929.9a.36.36 0 0 1-.14-.02l-11.52-4.8a.35.35 0 1 1 .27-.66l11.52 4.8a.35.35 0 0 1-.14.68z"/><path id="sn0zbw" d="M1126.65 4911.3l.47-.86s1.78-.68 2.01-1.37c.14-.75.17-1.52.09-2.28l-.05-.55 5.2 2.47.83.36c-.29.27-.53.58-.73.92-.32.54-.1 2.55-.1 2.55-.66.25-1.28.6-1.83 1.05-.55.55-2.83-.37-3.97-1.05-1.15-.68-1.92-1.24-1.92-1.24z"/><path id="sn0zbx" d="M1138.94 4917.27l.47-.86s1.78-.68 2.01-1.37c.14-.75.17-1.52.09-2.28l-.05-.55 5.2 2.47.83.36c-.29.27-.53.58-.73.92-.32.54-.1 2.55-.1 2.55-.65.25-1.27.6-1.82 1.05-.54.55-2.82-.37-3.97-1.05-1.15-.68-1.93-1.24-1.93-1.24z"/><path id="sn0zby" d="M1286.49 4977.26c-.2.4 2.6 6.12 9.1 8.96 6.5 2.85 12.6 5.23 13.64 3.53 1.05-1.7-9.67-7.67-12.26-8.81"/><path id="sn0zbz" d="M1229.68 4966.67c1.71-.7 7.06-.03 10.29 2.78 3.22 2.8 5.12 4.84 6.02 6.19.9 1.35.6 9.02 3.4 11.65 2.8 2.63-5.57 4-8.78 1.2-3.2-2.8-4.79-8.34-4.33-10.59.45-2.24-.17-5.42-2.66-6.46s-6.88-3.57-3.94-4.77z"/><path id="sn0zbA" d="M1243.89 4984.14c-1.42-.13-5.3 3.58 1.08 7.78 6.37 4.2 20.66 17.81 32.53 21.17 5.29 1.42 7.44-1.33 7.67-2.1.5-1.72 4.78-12.64-8.84-16.61-13.62-3.97-28.85-9.9-32.44-10.24z"/><path id="sn0zbB" d="M1275.68 4996.57a36.53 36.53 0 0 0 5.18-7.2c2.69-4.7 7.38-11.5 10.69-17.96 3.3-6.46 6.53-12.03 9.54-10.4 4.62 2.52 20.57 6.88 8.79 22.03-11.79 15.15-22.14 29.54-28.09 30.32-5.94.78-6.11-16.8-6.11-16.8z"/><path id="sn0zbC" d="M1301.09 4961.02c-3-1.64-6.23 3.93-9.54 10.4a142.59 142.59 0 0 1-5.82 10.03 49.7 49.7 0 0 1 11.02 4.19c2.66 1.32 5.35 2.64 7.71 4.4l5.42-7c11.78-15.15-4.16-19.51-8.79-22.02z"/><path id="sn0zbD" d="M1305.15 4949.32s-3.96.87-7.06 5.1c-3.1 4.22-6.98 11.99-8.69 15.89l-3.43 7.8s6.67 1.07 11.38 3.77c0 0 11.04 6.5 11.37 8.3.47.88 7.26-14.67 8.74-20.85 1.47-6.17 1.16-16.47-4.45-18.55-3.57-1.33-6.4-1.84-7.86-1.46z"/><path id="sn0zbE" d="M1314 4950.83c1.92 6.84.64 13.84-2.72 20.13a40 40 0 0 1-10.78 12.86c3.3 2.07 8 5.2 8.2 6.37.48.88 7.67-15.05 9.15-21.25 1.38-5.79.43-14.65-3.85-18.11z"/><path id="sn0zbF" d="M1238.86 4973.6a.35.35 0 0 1-.35-.3c-.52-3.73-8.11-6.18-8.2-6.21a.35.35 0 0 1 .22-.67c.33.1 8.1 2.61 8.68 6.77a.35.35 0 0 1-.3.4z"/><path id="sn0zbG" d="M1242.89 4973.94a.35.35 0 0 1-.35-.3c-.52-3.72-8.11-6.18-8.2-6.2a.35.35 0 0 1 .22-.68c.33.1 8.1 2.62 8.68 6.78a.35.35 0 0 1-.3.4z"/><path id="sn0zbH" d="M1228.21 4908.89c5.23 6.15 4.8 9.73 4.7 15.14-.09 5.42 3.45 15.7 4.71 23.14 1.27 7.44.36 22.6-6.15 25.16-6.52 2.57-12.95 1.1-13.76 0-1 .28-5.53.83-5.7-1.56-.1-.37 1.44.36 3.16-1.2 1.72-1.56 2.63-8.63 1.27-12.4-1.36-3.76-1.82-7.61.9-12.3 2.72-4.68 5.18-13.54 3.73-17.3-1.44-3.77-6.49-10.52-7.27-13.73-1.15-4.75 1-7.43 3.54-7.9 2.54-.45 8.06-.35 10.87 2.95z"/><path id="sn0zbI" d="M1217.7 4972.67a.35.35 0 0 1-.27-.58c3.7-4.44 3.37-14.34 3.36-14.44a.35.35 0 1 1 .7-.03c0 .42.36 10.27-3.52 14.92a.35.35 0 0 1-.27.13z"/><path id="sn0zbJ" d="M1220.71 4941.48a.35.35 0 0 1-.28-.56c.9-1.21 2.39-4.49 2.6-8.14.1-2.44-.04-4.88-.43-7.3a.35.35 0 0 1 .7-.12c.4 2.47.55 4.96.43 7.46-.21 3.8-1.79 7.24-2.73 8.51a.35.35 0 0 1-.29.15z"/></defs><g><g transform="translate(-1014 -4612)"><g><use fill="#71cefc" xlink:href="#sn0za"/></g><g><use fill="#71cefc" xlink:href="#sn0zb"/></g><g><use fill="#71cefc" xlink:href="#sn0zc"/></g><g><use fill="#71cefc" xlink:href="#sn0zd"/></g><g><use fill="#71cefc" xlink:href="#sn0ze"/></g><g><use fill="#71cefc" xlink:href="#sn0zf"/></g><g><use fill="#71cefc" xlink:href="#sn0zg"/></g><g><use fill="#71cefc" xlink:href="#sn0zh"/></g><g><use fill="#71cefc" xlink:href="#sn0zi"/></g><g><use fill="#71cefc" xlink:href="#sn0zj"/></g><g><use fill="#92cdfa" xlink:href="#sn0zk"/></g><g><use fill="#92cdfa" xlink:href="#sn0zl"/></g><g><use fill="#92cdfa" xlink:href="#sn0zm"/></g><g><use fill="#92cdfa" xlink:href="#sn0zn"/></g><g><use fill="#92cdfa" xlink:href="#sn0zo"/></g><g><use fill="#fff" fill-opacity="0" stroke="#2d2db0" stroke-miterlimit="50" xlink:href="#sn0zp"/></g><g><use fill="#fff" fill-opacity="0" stroke="#3636cc" stroke-miterlimit="50" xlink:href="#sn0zq"/></g><g><use fill="#71cefc" xlink:href="#sn0zr"/></g><g><use fill="#c7ebff" xlink:href="#sn0zs"/></g></g><g transform="translate(-1014 -4612)"><g><use fill="#d7d7ff" xlink:href="#sn0zt"/></g><g><use fill="#8080f1" xlink:href="#sn0zu"/></g><g><use fill="#8080f1" xlink:href="#sn0zv"/></g><g><use fill="#8080f1" xlink:href="#sn0zw"/></g><g><use fill="#04458f" xlink:href="#sn0zx"/></g><g><use fill="#04458f" xlink:href="#sn0zy"/></g><g><use fill="#04458f" xlink:href="#sn0zz"/></g><g><use fill="#0353a7" xlink:href="#sn0zA"/></g><g><use fill="#0353a7" xlink:href="#sn0zB"/></g><g><use fill="#0353a7" xlink:href="#sn0zC"/></g><g><use fill="#0161cd" xlink:href="#sn0zD"/></g><g><use fill="#0353a7" xlink:href="#sn0zE"/></g><g><use fill="#04458f" xlink:href="#sn0zF"/></g><g><use fill="#0353a7" xlink:href="#sn0zG"/></g><g><use fill="#0161cd" xlink:href="#sn0zH"/></g><g><use fill="#0353a7" xlink:href="#sn0zI"/></g><g><use fill="#0161cd" xlink:href="#sn0zJ"/></g><g><use fill="#1273eb" xlink:href="#sn0zK"/></g><g><use fill="#04458f" xlink:href="#sn0zL"/></g><g><use fill="#113255" xlink:href="#sn0zM"/></g><g><use fill="#ffeeb6" xlink:href="#sn0zN"/></g><g><use fill="#04458f" xlink:href="#sn0zO"/></g><g><use fill="#fcd250" xlink:href="#sn0zP"/></g><g><use fill="#fcdb7e" xlink:href="#sn0zQ"/></g><g><use fill="#fcdb7e" xlink:href="#sn0zR"/></g><g><use fill="#fcdb7e" xlink:href="#sn0zS"/></g><g><use fill="#fcd250" xlink:href="#sn0zT"/></g><g><use fill="#5f5ff6" xlink:href="#sn0zU"/></g><g><use fill="#4949e7" xlink:href="#sn0zV"/></g><g><use fill="#ffeeb6" xlink:href="#sn0zW"/></g><g><use fill="#fca120" xlink:href="#sn0zX"/></g><g><use fill="#ffeeb6" xlink:href="#sn0zY"/></g><g><use fill="#fcdb7e" xlink:href="#sn0zZ"/></g><g><use fill="#fcdb7e" xlink:href="#sn0zaa"/></g><g><use fill="#0161cd" xlink:href="#sn0zab"/></g><g><use fill="#1273eb" xlink:href="#sn0zac"/></g><g><use fill="#1273eb" xlink:href="#sn0zad"/></g><g><use fill="#fff" xlink:href="#sn0zae"/></g><g><use fill="#a5b7c6" xlink:href="#sn0zaf"/></g><g><use fill="#fff" xlink:href="#sn0zag"/></g><g><use fill="#a5b7c6" xlink:href="#sn0zah"/></g><g><use fill="#2d2db0" xlink:href="#sn0zai"/></g><g><use fill="#eb7d16" xlink:href="#sn0zaj"/></g><g><use fill="#eb7d16" xlink:href="#sn0zak"/></g><g><use fill="#eb7d16" xlink:href="#sn0zal"/></g><g><use fill="#eb7d16" xlink:href="#sn0zam"/></g><g><use fill="#2d2db0" xlink:href="#sn0zan"/></g><g><use fill="#2d2db0" xlink:href="#sn0zao"/></g><g><use fill="#2d2db0" xlink:href="#sn0zap"/></g><g><use fill="#2d2db0" xlink:href="#sn0zaq"/></g><g><use fill="#2d2db0" xlink:href="#sn0zar"/></g><g><use fill="#2d2db0" xlink:href="#sn0zas"/></g><g><use fill="#2d2db0" xlink:href="#sn0zat"/></g><g><use fill="#2d2db0" xlink:href="#sn0zau"/></g><g><use fill="#2d2db0" xlink:href="#sn0zav"/></g><g><use fill="#2d2db0" xlink:href="#sn0zaw"/></g><g><use fill="#2d2db0" xlink:href="#sn0zax"/></g><g><use fill="#2d2db0" xlink:href="#sn0zay"/></g><g><use fill="#2d2db0" xlink:href="#sn0zaz"/></g><g><use fill="#2d2db0" xlink:href="#sn0zaA"/></g><g><use fill="#2d2db0" xlink:href="#sn0zaB"/></g><g><use fill="#2d2db0" xlink:href="#sn0zaC"/></g><g><use fill="#2d2db0" xlink:href="#sn0zaD"/></g><g><use fill="#2d2db0" xlink:href="#sn0zaE"/></g><g><use fill="#2d2db0" xlink:href="#sn0zaF"/></g><g><use fill="#2d2db0" xlink:href="#sn0zaG"/></g><g><use fill="#fcdb7e" xlink:href="#sn0zaH"/></g><g><use fill="#b3b3fc" xlink:href="#sn0zaI"/></g><g><use fill="#b3b3fc" xlink:href="#sn0zaJ"/></g><g><use fill="#cfd9e0" xlink:href="#sn0zaK"/></g><g><use fill="#bac8d3" xlink:href="#sn0zaL"/></g><g><use fill="#b3b3fc" xlink:href="#sn0zaM"/></g><g><use fill="#8080f1" xlink:href="#sn0zaN"/></g><g><use fill="#8080f1" xlink:href="#sn0zaO"/></g><g><use fill="#8080f1" xlink:href="#sn0zaP"/></g><g><use fill="#b3b3fc" xlink:href="#sn0zaQ"/></g><g><use fill="#b3b3fc" xlink:href="#sn0zaR"/></g><g><use fill="#8080f1" xlink:href="#sn0zaS"/></g><g><use fill="#8080f1" xlink:href="#sn0zaT"/></g><g><use fill="#b3b3fc" xlink:href="#sn0zaU"/></g><g><use fill="#abffad" xlink:href="#sn0zaV"/></g><g><use fill="#8df690" xlink:href="#sn0zaW"/></g><g><use fill="#8df690" xlink:href="#sn0zaX"/></g><g><use fill="#4949e7" xlink:href="#sn0zaY"/></g><g><use fill="#3636cc" xlink:href="#sn0zaZ"/></g><g><use fill="#b3b3fc" xlink:href="#sn0zba"/></g><g><use fill="#b3b3fc" xlink:href="#sn0zbb"/></g><g><use fill="#e3e9ed" xlink:href="#sn0zbc"/></g><g><use fill="#cfd9e0" xlink:href="#sn0zbd"/></g><g><use fill="#164372" xlink:href="#sn0zbe"/></g><g><use fill="#164372" xlink:href="#sn0zbf"/></g><g><use fill="#194c80" xlink:href="#sn0zbg"/></g><g><use fill="#194c80" xlink:href="#sn0zbh"/></g><g><use fill="#194c80" xlink:href="#sn0zbi"/></g><g><use fill="#abffad" xlink:href="#sn0zbj"/></g><g><use fill="#2d2db0" xlink:href="#sn0zbk"/></g><g><use fill="#2d2db0" xlink:href="#sn0zbl"/></g><g><use fill="#2d2db0" xlink:href="#sn0zbm"/></g><g><use fill="#2d2db0" xlink:href="#sn0zbn"/></g><g><use fill="#2d2db0" xlink:href="#sn0zbo"/></g><g><use fill="#2d2db0" xlink:href="#sn0zbp"/></g><g><use fill="#2d2db0" xlink:href="#sn0zbq"/></g><g><use fill="#0353a7" xlink:href="#sn0zbr"/></g><g><use fill="#0353a7" xlink:href="#sn0zbs"/></g><g><use fill="#0353a7" xlink:href="#sn0zbt"/></g><g><use fill="#2d2db0" xlink:href="#sn0zbu"/></g><g><use fill="#2d2db0" xlink:href="#sn0zbv"/></g><g><use fill="#0353a7" xlink:href="#sn0zbw"/></g><g><use fill="#0353a7" xlink:href="#sn0zbx"/></g><g><use fill="#113255" xlink:href="#sn0zby"/></g><g><use fill="#ffeeb6" xlink:href="#sn0zbz"/></g><g><use fill="#ffeeb6" xlink:href="#sn0zbA"/></g><g><use fill="#ffeeb6" xlink:href="#sn0zbB"/></g><g><use fill="#fcd250" xlink:href="#sn0zbC"/></g><g><use fill="#8080f1" xlink:href="#sn0zbD"/></g><g><use fill="#5f5ff6" xlink:href="#sn0zbE"/></g><g><use fill="#ffb229" xlink:href="#sn0zbF"/></g><g><use fill="#ffb229" xlink:href="#sn0zbG"/></g><g><use fill="#5f5ff6" xlink:href="#sn0zbH"/></g><g><use fill="#2d2db0" xlink:href="#sn0zbI"/></g><g><use fill="#2d2db0" xlink:href="#sn0zbJ"/></g></g></g></svg>