<?xml version="1.0" encoding="UTF-8" standalone="no"?> <svg width="64" height="64" viewBox="0 0 64 64" fill="none" xmlns="http://www.w3.org/2000/svg">
<path d="M18.2199 36.37H50.3499L59.7999 13.17H12.6399L18.2199 36.37Z" fill="#78B9EB"/>
<path d="M50.92 36.66L60.92 13.23C60.9865 13.0776 61.014 12.9109 60.9999 12.7452C60.9858 12.5794 60.9305 12.4198 60.8392 12.2808C60.7478 12.1418 60.6233 12.0278 60.4767 11.9491C60.3302 11.8704 60.1663 11.8294 60 11.83H13.69L13 8.62002C12.9492 8.39444 12.8218 8.19343 12.6395 8.05122C12.4571 7.909 12.2312 7.83437 12 7.84002H4C3.73478 7.84002 3.48043 7.94538 3.29289 8.13291C3.10536 8.32045 3 8.5748 3 8.84002C3 9.10524 3.10536 9.35959 3.29289 9.54713C3.48043 9.73466 3.73478 9.84002 4 9.84002H11.2L18.88 44.34C18.9288 44.5674 19.0553 44.7708 19.2379 44.9149C19.4204 45.0591 19.6475 45.1352 19.88 45.13H50C50.2652 45.13 50.5196 45.0247 50.7071 44.8371C50.8946 44.6496 51 44.3952 51 44.13C51 43.8648 50.8946 43.6104 50.7071 43.4229C50.5196 43.2354 50.2652 43.13 50 43.13H20.66L19.35 37.27H50C50.1963 37.2699 50.3882 37.2119 50.5518 37.1035C50.7154 36.995 50.8434 36.8408 50.92 36.66V36.66ZM34.25 25.55V35.27H26.37V25.55H34.25ZM26.37 23.55V13.83H34.25V23.55H26.37ZM36.25 25.55H44.12V35.27H36.25V25.55ZM36.25 23.55V13.83H44.12V23.55H36.25ZM46.12 13.83H54V23.55H46.12V13.83ZM56 19.66V13.83H58.49L56 19.66ZM24.37 13.83V23.55H16.3L14.14 13.83H24.37ZM16.75 25.55H24.37V35.27H18.91L16.75 25.55ZM46.12 35.27V25.55H53.49L49.34 35.27H46.12Z" fill="#006DF0"/>
<path d="M25.2099 47.09C24.312 47.09 23.4342 47.3563 22.6876 47.8552C21.941 48.354 21.3591 49.0631 21.0155 49.8927C20.6719 50.7222 20.582 51.6351 20.7572 52.5157C20.9323 53.3964 21.3647 54.2054 21.9997 54.8403C22.6346 55.4752 23.4435 55.9076 24.3242 56.0828C25.2049 56.258 26.1177 56.1681 26.9473 55.8245C27.7769 55.4808 28.4859 54.8989 28.9848 54.1523C29.4837 53.4057 29.7499 52.528 29.7499 51.63C29.7512 51.0335 29.6347 50.4425 29.407 49.8911C29.1793 49.3397 28.845 48.8387 28.4231 48.4168C28.0013 47.995 27.5003 47.6606 26.9489 47.4329C26.3975 47.2053 25.8065 47.0887 25.2099 47.09V47.09ZM25.2099 54.16C24.7071 54.16 24.2157 54.0108 23.7977 53.7313C23.3798 53.4517 23.0543 53.0544 22.8623 52.5897C22.6704 52.125 22.6207 51.6138 22.7195 51.1208C22.8183 50.6278 23.0612 50.1753 23.4174 49.8204C23.7737 49.4656 24.2272 49.2245 24.7206 49.1276C25.2139 49.0308 25.7249 49.0825 26.1889 49.2763C26.6528 49.47 27.0488 49.7972 27.3267 50.2162C27.6046 50.6352 27.7519 51.1273 27.7499 51.63C27.7473 52.302 27.4785 52.9454 27.0024 53.4196C26.5264 53.8938 25.8818 54.16 25.2099 54.16V54.16Z" fill="#006DF0"/>
<path d="M43.4999 47.09C42.6003 47.0821 41.7187 47.3416 40.9668 47.8356C40.215 48.3296 39.6269 49.0359 39.2771 49.8647C38.9273 50.6936 38.8317 51.6077 39.0023 52.491C39.173 53.3742 39.6022 54.1869 40.2355 54.8259C40.8688 55.4648 41.6777 55.9012 42.5594 56.0796C43.4411 56.2581 44.356 56.1705 45.1879 55.8281C46.0199 55.4857 46.7313 54.9039 47.2319 54.1564C47.7326 53.409 47.9999 52.5296 47.9999 51.63C48.0026 50.432 47.5306 49.2818 46.6873 48.4309C45.8439 47.5801 44.6979 47.098 43.4999 47.09V47.09ZM43.4999 54.16C42.9955 54.168 42.5002 54.0255 42.077 53.7508C41.6539 53.4762 41.3221 53.0817 41.124 52.6178C40.9259 52.1538 40.8704 51.6414 40.9647 51.1458C41.0589 50.6502 41.2986 50.1939 41.6532 49.835C42.0078 49.4762 42.4612 49.2311 42.9556 49.1309C43.4501 49.0307 43.9631 49.0801 44.4294 49.2726C44.8957 49.4652 45.2941 49.7922 45.5738 50.2121C45.8535 50.6319 46.0018 51.1255 45.9999 51.63C45.9974 52.2951 45.7341 52.9326 45.2667 53.4056C44.7992 53.8787 44.1649 54.1496 43.4999 54.16V54.16Z" fill="#006DF0"/>
</svg>
